<?xml version="1.0" encoding="UTF-8" standalone="no"?>
<!DOCTYPE svg PUBLIC "-//W3C//DTD SVG 1.1//EN"
 "http://www.w3.org/Graphics/SVG/1.1/DTD/svg11.dtd">
<!-- Generated by graphviz version 2.43.0 (0)
 -->
<!-- Title: Example Pages: 1 -->
<svg width="689pt" height="164pt"
 viewBox="0.00 0.00 689.38 164.00" xmlns="http://www.w3.org/2000/svg" xmlns:xlink="http://www.w3.org/1999/xlink">
<g id="graph0" class="graph" transform="scale(1 1) rotate(0) translate(4 160)">
<title>Example</title>
<polygon fill="white" stroke="transparent" points="-4,4 -4,-160 685.38,-160 685.38,4 -4,4"/>
<text text-anchor="middle" x="340.69" y="-136" font-family="Arial Bold" font-size="20.00">Example</text>
<!-- FOO -->
<g id="node1" class="node">
<title>FOO</title>
<ellipse fill="#f8f8f8" stroke="black" cx="31.85" cy="-62" rx="31.7" ry="31.7"/>
<text text-anchor="middle" x="31.85" y="-58.3" font-family="Times,serif" font-size="14.00">FOO</text>
</g>
<!-- BAR -->
<g id="node2" class="node">
<title>BAR</title>
<polygon fill="#f8f8f8" stroke="black" points="232.89,-80 189.49,-62 232.89,-44 276.3,-62 232.89,-80"/>
<text text-anchor="middle" x="232.89" y="-58.3" font-family="Times,serif" font-size="14.00">BAR</text>
</g>
<!-- FOO&#45;&gt;BAR -->
<g id="edge1" class="edge">
<title>FOO&#45;&gt;BAR</title>
<path fill="none" stroke="#555555" d="M63.95,-62C94.83,-62 142.75,-62 179.51,-62"/>
<polygon fill="#555555" stroke="#555555" points="179.56,-65.5 189.56,-62 179.56,-58.5 179.56,-65.5"/>
<text text-anchor="middle" x="126.69" y="-76" font-family="Times,serif" font-size="10.00">on: A</text>
<text text-anchor="middle" x="126.69" y="-65" font-family="Times,serif" font-size="10.00">do: handler_A</text>
</g>
<!-- BAZ -->
<g id="node3" class="node">
<title>BAZ</title>
<ellipse fill="#f8f8f8" stroke="black" cx="441.74" cy="-108" rx="30.59" ry="18"/>
<text text-anchor="middle" x="441.74" y="-104.3" font-family="Times,serif" font-size="14.00">BAZ</text>
</g>
<!-- BAR&#45;&gt;BAZ -->
<g id="edge2" class="edge">
<title>BAR&#45;&gt;BAZ</title>
<path fill="none" stroke="#555555" d="M261.79,-68.2C298.29,-76.32 362.37,-90.57 403.13,-99.64"/>
<polygon fill="#555555" stroke="#555555" points="402.44,-103.07 412.96,-101.82 403.96,-96.23 402.44,-103.07"/>
<text text-anchor="middle" x="339.1" y="-107" font-family="Times,serif" font-size="10.00">on: B</text>
<text text-anchor="middle" x="339.1" y="-96" font-family="Times,serif" font-size="10.00">do: handler_B</text>
</g>
<!-- THUD -->
<g id="node4" class="node">
<title>THUD</title>
<ellipse fill="#f8f8f8" stroke="black" cx="441.74" cy="-18" rx="39.79" ry="18"/>
<text text-anchor="middle" x="441.74" y="-14.3" font-family="Times,serif" font-size="14.00">THUD</text>
</g>
<!-- BAR&#45;&gt;THUD -->
<g id="edge3" class="edge">
<title>BAR&#45;&gt;THUD</title>
<path fill="none" stroke="#555555" d="M250.29,-51.1C270.76,-37.5 303.1,-16 303.1,-16 303.1,-16 375.1,-16 375.1,-16 375.1,-16 382.29,-16.22 391.92,-16.51"/>
<polygon fill="#555555" stroke="#555555" points="392.07,-20.02 402.18,-16.83 392.29,-13.02 392.07,-20.02"/>
<text text-anchor="middle" x="339.1" y="-30" font-family="Times,serif" font-size="10.00">on: C</text>
<text text-anchor="middle" x="339.1" y="-19" font-family="Times,serif" font-size="10.00">do: handler_C</text>
</g>
<!-- QUX -->
<g id="node5" class="node">
<title>QUX</title>
<ellipse fill="#f8f8f8" stroke="black" cx="644.89" cy="-62" rx="32.49" ry="32.49"/>
<ellipse fill="none" stroke="black" cx="644.89" cy="-62" rx="36.49" ry="36.49"/>
<text text-anchor="middle" x="644.89" y="-58.3" font-family="Times,serif" font-size="14.00">QUX</text>
</g>
<!-- BAZ&#45;&gt;QUX -->
<g id="edge4" class="edge">
<title>BAZ&#45;&gt;QUX</title>
<path fill="none" stroke="#555555" d="M470.71,-101.6C503.98,-94 559.94,-81.2 599.22,-72.22"/>
<polygon fill="#555555" stroke="#555555" points="600.1,-75.6 609.07,-69.96 598.54,-68.78 600.1,-75.6"/>
<text text-anchor="middle" x="544.89" y="-105" font-family="Times,serif" font-size="10.00">on: D</text>
<text text-anchor="middle" x="544.89" y="-94" font-family="Times,serif" font-size="10.00">do: handler_D</text>
</g>
<!-- THUD&#45;&gt;QUX -->
<g id="edge5" class="edge">
<title>THUD&#45;&gt;QUX</title>
<path fill="none" stroke="#555555" d="M481.31,-16.83C495.6,-16.39 508.39,-16 508.39,-16 508.39,-16 581.39,-16 581.39,-16 581.39,-16 593.13,-24.64 606.44,-34.44"/>
<polygon fill="#555555" stroke="#555555" points="604.7,-37.51 614.83,-40.62 608.85,-31.87 604.7,-37.51"/>
<text text-anchor="middle" x="544.89" y="-30" font-family="Times,serif" font-size="10.00">on: E</text>
<text text-anchor="middle" x="544.89" y="-19" font-family="Times,serif" font-size="10.00">do: handler_E</text>
</g>
</g>
</svg>
