<?xml version="1.0" encoding="UTF-8" standalone="no"?>
<!DOCTYPE svg PUBLIC "-//W3C//DTD SVG 1.1//EN"
 "http://www.w3.org/Graphics/SVG/1.1/DTD/svg11.dtd">
<!-- Generated by graphviz version 2.43.0 (0)
 -->
<!-- Title: Example Pages: 1 -->
<svg width="1410pt" height="264pt"
 viewBox="0.00 0.00 1409.87 264.00" xmlns="http://www.w3.org/2000/svg" xmlns:xlink="http://www.w3.org/1999/xlink">
<g id="graph0" class="graph" transform="scale(1 1) rotate(0) translate(4 260)">
<title>Example</title>
<polygon fill="white" stroke="transparent" points="-4,4 -4,-260 1405.87,-260 1405.87,4 -4,4"/>
<text text-anchor="middle" x="700.94" y="-236" font-family="Arial Bold" font-size="20.00">Example</text>
<g id="clust1" class="cluster">
<title>cluster_BAZ</title>
<path fill="#f8f8f8" stroke="#dddddd" d="M420.1,-82C420.1,-82 1190.88,-82 1190.88,-82 1196.88,-82 1202.88,-88 1202.88,-94 1202.88,-94 1202.88,-206 1202.88,-206 1202.88,-212 1196.88,-218 1190.88,-218 1190.88,-218 420.1,-218 420.1,-218 414.1,-218 408.1,-212 408.1,-206 408.1,-206 408.1,-94 408.1,-94 408.1,-88 414.1,-82 420.1,-82"/>
<text text-anchor="middle" x="805.49" y="-198" font-family="Arial Bold" font-size="20.00">BAZ</text>
</g>
<!-- FOO -->
<g id="node1" class="node">
<title>FOO</title>
<ellipse fill="#f8f8f8" stroke="black" cx="31.85" cy="-66" rx="31.7" ry="31.7"/>
<text text-anchor="middle" x="31.85" y="-62.3" font-family="Times,serif" font-size="14.00">FOO</text>
</g>
<!-- BAR -->
<g id="node2" class="node">
<title>BAR</title>
<polygon fill="#f8f8f8" stroke="black" points="239.89,-84 196.49,-66 239.89,-48 283.3,-66 239.89,-84"/>
<text text-anchor="middle" x="239.89" y="-62.3" font-family="Times,serif" font-size="14.00">BAR</text>
</g>
<!-- FOO&#45;&gt;BAR -->
<g id="edge1" class="edge">
<title>FOO&#45;&gt;BAR</title>
<path fill="none" stroke="#555555" d="M63.69,-66C96.05,-66 147.51,-66 186.3,-66"/>
<polygon fill="#555555" stroke="#555555" points="186.37,-69.5 196.37,-66 186.37,-62.5 186.37,-69.5"/>
<text text-anchor="middle" x="130.19" y="-80" font-family="Times,serif" font-size="10.00">on: A</text>
<text text-anchor="middle" x="130.19" y="-69" font-family="Times,serif" font-size="10.00">do: [handler_A]</text>
</g>
<!-- THUD -->
<g id="node3" class="node">
<title>THUD</title>
<ellipse fill="#f8f8f8" stroke="black" cx="1149.93" cy="-18" rx="39.79" ry="18"/>
<text text-anchor="middle" x="1149.93" y="-14.3" font-family="Times,serif" font-size="14.00">THUD</text>
</g>
<!-- BAR&#45;&gt;THUD -->
<g id="edge2" class="edge">
<title>BAR&#45;&gt;THUD</title>
<path fill="none" stroke="#555555" d="M269.3,-59.93C324.76,-48.08 442.1,-23 442.1,-23 442.1,-23 442.1,-23 907.04,-23 907.04,-23 1029.36,-20.47 1100.04,-19.01"/>
<polygon fill="#555555" stroke="#555555" points="1100.14,-22.51 1110.07,-18.8 1100,-15.51 1100.14,-22.51"/>
<text text-anchor="middle" x="667.6" y="-37" font-family="Times,serif" font-size="10.00">on: C</text>
<text text-anchor="middle" x="667.6" y="-26" font-family="Times,serif" font-size="10.00">do: [handler_C]</text>
</g>
<!-- BAZ -->
<g id="node5" class="node">
<title>BAZ</title>
<polygon fill="#f8f8f8" stroke="black" points="470.1,-152 416.1,-152 416.1,-116 470.1,-116 470.1,-152"/>
<text text-anchor="middle" x="443.1" y="-130.3" font-family="Times,serif" font-size="14.00">BAZ</text>
</g>
<!-- BAR&#45;&gt;BAZ -->
<g id="edge4" class="edge">
<title>BAR&#45;&gt;BAZ</title>
<path fill="none" stroke="#555555" d="M264.37,-73.93C299.32,-85.75 365.32,-108.05 406.32,-121.91"/>
<polygon fill="#555555" stroke="#555555" points="397.89,-120.29 408.1,-123.15 401.9,-114.55 397.89,-120.29"/>
<text text-anchor="middle" x="349.6" y="-140" font-family="Times,serif" font-size="10.00">on: B</text>
<text text-anchor="middle" x="349.6" y="-129" font-family="Times,serif" font-size="10.00">do: [handler_B]</text>
<text text-anchor="middle" x="349.6" y="-118" font-family="Times,serif" font-size="10.00">entry: SSE_1</text>
</g>
<!-- QUX -->
<g id="node4" class="node">
<title>QUX</title>
<ellipse fill="#f8f8f8" stroke="black" cx="1365.38" cy="-76" rx="32.49" ry="32.49"/>
<ellipse fill="none" stroke="black" cx="1365.38" cy="-76" rx="36.49" ry="36.49"/>
<text text-anchor="middle" x="1365.38" y="-72.3" font-family="Times,serif" font-size="14.00">QUX</text>
</g>
<!-- THUD&#45;&gt;QUX -->
<g id="edge3" class="edge">
<title>THUD&#45;&gt;QUX</title>
<path fill="none" stroke="#555555" d="M1188.25,-22.7C1232.95,-28.32 1301.88,-37 1301.88,-37 1301.88,-37 1312.52,-43.64 1325.02,-51.44"/>
<polygon fill="#555555" stroke="#555555" points="1323.52,-54.63 1333.86,-56.96 1327.23,-48.69 1323.52,-54.63"/>
<text text-anchor="middle" x="1261.88" y="-51" font-family="Times,serif" font-size="10.00">on: E</text>
<text text-anchor="middle" x="1261.88" y="-40" font-family="Times,serif" font-size="10.00">do: [handler_E]</text>
</g>
<!-- BAZ_I -->
<g id="node7" class="node">
<title>BAZ_I</title>
<ellipse fill="#f8f8f8" stroke="black" cx="667.6" cy="-142" rx="38.19" ry="38.19"/>
<text text-anchor="middle" x="667.6" y="-138.3" font-family="Times,serif" font-size="14.00">BAZ_I</text>
</g>
<!-- BAZ&#45;&gt;BAZ_I -->
<g id="edge6" class="edge">
<title>BAZ&#45;&gt;BAZ_I</title>
<path fill="none" stroke="#555555" d="M470.49,-134.95C507.02,-136.26 573.58,-138.66 618.93,-140.29"/>
<polygon fill="#555555" stroke="#555555" points="619,-143.79 629.11,-140.65 619.25,-136.8 619,-143.79"/>
<text text-anchor="middle" x="549.1" y="-153" font-family="Times,serif" font-size="10.00">on: SSE_1</text>
<text text-anchor="middle" x="549.1" y="-142" font-family="Times,serif" font-size="10.00">do: [handler_SSE_1]</text>
</g>
<!-- BAZ_F -->
<g id="node6" class="node">
<title>BAZ_F</title>
<ellipse fill="#f8f8f8" stroke="black" cx="1149.93" cy="-135" rx="40.9" ry="40.9"/>
<ellipse fill="none" stroke="black" cx="1149.93" cy="-135" rx="44.89" ry="44.89"/>
<text text-anchor="middle" x="1149.93" y="-131.3" font-family="Times,serif" font-size="14.00">BAZ_F</text>
</g>
<!-- BAZ_F&#45;&gt;QUX -->
<g id="edge5" class="edge">
<title>BAZ_F&#45;&gt;QUX</title>
<path fill="none" stroke="#555555" d="M1202.88,-120.64C1238.76,-110.72 1285.96,-97.68 1320.06,-88.25"/>
<polygon fill="#555555" stroke="#555555" points="1321.41,-91.51 1330.12,-85.47 1319.55,-84.76 1321.41,-91.51"/>
<text text-anchor="middle" x="1261.88" y="-128" font-family="Times,serif" font-size="10.00">on: D</text>
<text text-anchor="middle" x="1261.88" y="-117" font-family="Times,serif" font-size="10.00">do: [handler_D]</text>
</g>
<!-- BAZ_S -->
<g id="node8" class="node">
<title>BAZ_S</title>
<ellipse fill="#f8f8f8" stroke="black" cx="906.04" cy="-144" rx="40.89" ry="18"/>
<text text-anchor="middle" x="906.04" y="-140.3" font-family="Times,serif" font-size="14.00">BAZ_S</text>
</g>
<!-- BAZ_I&#45;&gt;BAZ_S -->
<g id="edge7" class="edge">
<title>BAZ_I&#45;&gt;BAZ_S</title>
<path fill="none" stroke="#555555" d="M706.06,-142.32C746.29,-142.66 810.42,-143.2 854.95,-143.58"/>
<polygon fill="#555555" stroke="#555555" points="854.96,-147.08 864.98,-143.66 855.01,-140.08 854.96,-147.08"/>
<text text-anchor="middle" x="786.1" y="-157" font-family="Times,serif" font-size="10.00">on: SSE_2</text>
<text text-anchor="middle" x="786.1" y="-146" font-family="Times,serif" font-size="10.00">do: [handler_SSE_2]</text>
</g>
<!-- BAZ_S&#45;&gt;BAZ_F -->
<g id="edge8" class="edge">
<title>BAZ_S&#45;&gt;BAZ_F</title>
<path fill="none" stroke="#555555" d="M946.99,-142.51C987.32,-141.01 1049.9,-138.68 1094.7,-137.02"/>
<polygon fill="#555555" stroke="#555555" points="1094.97,-140.51 1104.83,-136.64 1094.71,-133.52 1094.97,-140.51"/>
<text text-anchor="middle" x="1025.99" y="-166" font-family="Times,serif" font-size="10.00">on: SSE_3</text>
<text text-anchor="middle" x="1025.99" y="-155" font-family="Times,serif" font-size="10.00">do: [handler_SSE_3]</text>
<text text-anchor="middle" x="1025.99" y="-144" font-family="Times,serif" font-size="10.00">entry: D</text>
</g>
</g>
</svg>
