<?xml version="1.0" encoding="UTF-8" standalone="no"?>
<!DOCTYPE svg PUBLIC "-//W3C//DTD SVG 1.1//EN"
 "http://www.w3.org/Graphics/SVG/1.1/DTD/svg11.dtd">
<!-- Generated by graphviz version 2.43.0 (0)
 -->
<!-- Title: ExampleSubstates Pages: 1 -->
<svg width="1289pt" height="230pt"
 viewBox="0.00 0.00 1288.60 230.00" xmlns="http://www.w3.org/2000/svg" xmlns:xlink="http://www.w3.org/1999/xlink">
<g id="graph0" class="graph" transform="scale(1 1) rotate(0) translate(4 226)">
<title>ExampleSubstates</title>
<polygon fill="white" stroke="transparent" points="-4,4 -4,-226 1284.6,-226 1284.6,4 -4,4"/>
<text text-anchor="middle" x="640.3" y="-202" font-family="Arial Bold" font-size="20.00">ExampleSubstates</text>
<g id="clust1" class="cluster">
<title>cluster_BAZ</title>
<path fill="#f8f8f8" stroke="#dddddd" d="M469,-51C469,-51 1069.6,-51 1069.6,-51 1075.6,-51 1081.6,-57 1081.6,-63 1081.6,-63 1081.6,-172 1081.6,-172 1081.6,-178 1075.6,-184 1069.6,-184 1069.6,-184 469,-184 469,-184 463,-184 457,-178 457,-172 457,-172 457,-63 457,-63 457,-57 463,-51 469,-51"/>
<text text-anchor="middle" x="769.3" y="-164" font-family="Arial Bold" font-size="20.00">BAZ</text>
</g>
<!-- __eph_initial_FOO -->
<g id="node1" class="node">
<title>__eph_initial_FOO</title>
<ellipse fill="#f8f8f8" stroke="black" cx="1.8" cy="-57" rx="1.8" ry="1.8"/>
</g>
<!-- FOO -->
<g id="node2" class="node">
<title>FOO</title>
<path fill="none" stroke="black" d="M100.6,-75C100.6,-75 70.6,-75 70.6,-75 64.6,-75 58.6,-69 58.6,-63 58.6,-63 58.6,-51 58.6,-51 58.6,-45 64.6,-39 70.6,-39 70.6,-39 100.6,-39 100.6,-39 106.6,-39 112.6,-45 112.6,-51 112.6,-51 112.6,-63 112.6,-63 112.6,-69 106.6,-75 100.6,-75"/>
<text text-anchor="middle" x="85.6" y="-53.3" font-family="Times,serif" font-size="14.00">FOO</text>
</g>
<!-- __eph_initial_FOO&#45;&gt;FOO -->
<g id="edge1" class="edge">
<title>__eph_initial_FOO&#45;&gt;FOO</title>
<path fill="none" stroke="#555555" d="M3.72,-57C8.27,-57 28.97,-57 48.29,-57"/>
<polygon fill="#555555" stroke="#555555" points="48.46,-60.5 58.46,-57 48.46,-53.5 48.46,-60.5"/>
</g>
<!-- BAR -->
<g id="node3" class="node">
<title>BAR</title>
<polygon fill="#f8f8f8" stroke="black" points="288.8,-75 245.4,-57 288.8,-39 332.2,-57 288.8,-75"/>
<text text-anchor="middle" x="288.8" y="-53.3" font-family="Times,serif" font-size="14.00">BAR</text>
</g>
<!-- FOO&#45;&gt;BAR -->
<g id="edge2" class="edge">
<title>FOO&#45;&gt;BAR</title>
<path fill="none" stroke="#555555" d="M112.9,-57C143.8,-57 195.83,-57 235.13,-57"/>
<polygon fill="#555555" stroke="#555555" points="235.33,-60.5 245.33,-57 235.33,-53.5 235.33,-60.5"/>
<text text-anchor="middle" x="179.1" y="-71" font-family="Times,serif" font-size="10.00">on: A</text>
<text text-anchor="middle" x="179.1" y="-60" font-family="Times,serif" font-size="10.00">do: [handler_A]</text>
</g>
<!-- THUD -->
<g id="node4" class="node">
<title>THUD</title>
<path fill="none" stroke="black" d="M1060.6,-36C1060.6,-36 1023.6,-36 1023.6,-36 1017.6,-36 1011.6,-30 1011.6,-24 1011.6,-24 1011.6,-12 1011.6,-12 1011.6,-6 1017.6,0 1023.6,0 1023.6,0 1060.6,0 1060.6,0 1066.6,0 1072.6,-6 1072.6,-12 1072.6,-12 1072.6,-24 1072.6,-24 1072.6,-30 1066.6,-36 1060.6,-36"/>
<text text-anchor="middle" x="1042.1" y="-14.3" font-family="Times,serif" font-size="14.00">THUD</text>
</g>
<!-- BAR&#45;&gt;THUD -->
<g id="edge3" class="edge">
<title>BAR&#45;&gt;THUD</title>
<path fill="none" stroke="#555555" d="M316.53,-50.47C365.77,-38.44 465.8,-14 465.8,-14 465.8,-14 465.8,-14 847.1,-14 847.1,-14 944.32,-16 1001.11,-17.18"/>
<polygon fill="#555555" stroke="#555555" points="1001.14,-20.68 1011.21,-17.38 1001.29,-13.68 1001.14,-20.68"/>
<text text-anchor="middle" x="641.6" y="-28" font-family="Times,serif" font-size="10.00">on: D</text>
<text text-anchor="middle" x="641.6" y="-17" font-family="Times,serif" font-size="10.00">do: [handler_D]</text>
</g>
<!-- __eph_initial_BAZ__ -->
<g id="node6" class="node">
<title>__eph_initial_BAZ__</title>
<ellipse fill="#f8f8f8" stroke="black" cx="466.8" cy="-110" rx="1.8" ry="1.8"/>
</g>
<!-- BAR&#45;&gt;__eph_initial_BAZ__ -->
<g id="edge5" class="edge">
<title>BAR&#45;&gt;__eph_initial_BAZ__</title>
<path fill="none" stroke="#555555" d="M314.64,-64.48C353.55,-76.2 427.28,-98.4 454.95,-106.73"/>
<polygon fill="#555555" stroke="#555555" points="454.05,-110.12 464.64,-109.65 456.07,-103.41 454.05,-110.12"/>
<text text-anchor="middle" x="398.5" y="-126" font-family="Times,serif" font-size="10.00">on: B</text>
<text text-anchor="middle" x="398.5" y="-115" font-family="Times,serif" font-size="10.00">do: [handler_B]</text>
<text text-anchor="middle" x="398.5" y="-104" font-family="Times,serif" font-size="10.00">on_entry: C</text>
</g>
<!-- QUX -->
<g id="node5" class="node">
<title>QUX</title>
<ellipse fill="#f8f8f8" stroke="black" cx="1244.1" cy="-62" rx="32.49" ry="32.49"/>
<ellipse fill="none" stroke="black" cx="1244.1" cy="-62" rx="36.49" ry="36.49"/>
<text text-anchor="middle" x="1244.1" y="-58.3" font-family="Times,serif" font-size="14.00">QUX</text>
</g>
<!-- THUD&#45;&gt;QUX -->
<g id="edge4" class="edge">
<title>THUD&#45;&gt;QUX</title>
<path fill="none" stroke="#555555" d="M1072.86,-16.96C1086.89,-16.48 1100.6,-16 1100.6,-16 1100.6,-16 1180.6,-16 1180.6,-16 1180.6,-16 1192.34,-24.64 1205.65,-34.44"/>
<polygon fill="#555555" stroke="#555555" points="1203.92,-37.51 1214.04,-40.62 1208.07,-31.87 1203.92,-37.51"/>
<text text-anchor="middle" x="1140.6" y="-30" font-family="Times,serif" font-size="10.00">on: G</text>
<text text-anchor="middle" x="1140.6" y="-19" font-family="Times,serif" font-size="10.00">do: [handler_G]</text>
</g>
<!-- BAZ_I -->
<g id="node8" class="node">
<title>BAZ_I</title>
<path fill="none" stroke="black" d="M659.1,-131C659.1,-131 624.1,-131 624.1,-131 618.1,-131 612.1,-125 612.1,-119 612.1,-119 612.1,-107 612.1,-107 612.1,-101 618.1,-95 624.1,-95 624.1,-95 659.1,-95 659.1,-95 665.1,-95 671.1,-101 671.1,-107 671.1,-107 671.1,-119 671.1,-119 671.1,-125 665.1,-131 659.1,-131"/>
<text text-anchor="middle" x="641.6" y="-109.3" font-family="Times,serif" font-size="14.00">BAZ_I</text>
</g>
<!-- __eph_initial_BAZ__&#45;&gt;BAZ_I -->
<g id="edge7" class="edge">
<title>__eph_initial_BAZ__&#45;&gt;BAZ_I</title>
<path fill="none" stroke="#555555" d="M468.9,-110.02C478.87,-110.19 554.1,-111.5 601.61,-112.32"/>
<polygon fill="#555555" stroke="#555555" points="601.82,-115.83 611.88,-112.5 601.94,-108.83 601.82,-115.83"/>
<text text-anchor="middle" x="535.1" y="-136" font-family="Times,serif" font-size="10.00">on: B</text>
<text text-anchor="middle" x="535.1" y="-125" font-family="Times,serif" font-size="10.00">do: [handler_B]</text>
<text text-anchor="middle" x="535.1" y="-114" font-family="Times,serif" font-size="10.00">on_entry: C</text>
</g>
<!-- BAZ_F -->
<g id="node7" class="node">
<title>BAZ_F</title>
<path fill="none" stroke="black" d="M1061.6,-128C1061.6,-128 1022.6,-128 1022.6,-128 1016.6,-128 1010.6,-122 1010.6,-116 1010.6,-116 1010.6,-104 1010.6,-104 1010.6,-98 1016.6,-92 1022.6,-92 1022.6,-92 1061.6,-92 1061.6,-92 1067.6,-92 1073.6,-98 1073.6,-104 1073.6,-104 1073.6,-116 1073.6,-116 1073.6,-122 1067.6,-128 1061.6,-128"/>
<text text-anchor="middle" x="1042.1" y="-106.3" font-family="Times,serif" font-size="14.00">BAZ_F</text>
</g>
<!-- BAZ_F&#45;&gt;QUX -->
<g id="edge6" class="edge">
<title>BAZ_F&#45;&gt;QUX</title>
<path fill="none" stroke="#555555" d="M1081.6,-100.76C1115,-92.74 1163.36,-81.14 1198.45,-72.71"/>
<polygon fill="#555555" stroke="#555555" points="1199.31,-76.11 1208.21,-70.37 1197.67,-69.3 1199.31,-76.11"/>
<text text-anchor="middle" x="1140.6" y="-109" font-family="Times,serif" font-size="10.00">on: F</text>
<text text-anchor="middle" x="1140.6" y="-98" font-family="Times,serif" font-size="10.00">do: [handler_F]</text>
</g>
<!-- BAZ_S -->
<g id="node9" class="node">
<title>BAZ_S</title>
<path fill="none" stroke="black" d="M865.6,-132C865.6,-132 826.6,-132 826.6,-132 820.6,-132 814.6,-126 814.6,-120 814.6,-120 814.6,-108 814.6,-108 814.6,-102 820.6,-96 826.6,-96 826.6,-96 865.6,-96 865.6,-96 871.6,-96 877.6,-102 877.6,-108 877.6,-108 877.6,-120 877.6,-120 877.6,-126 871.6,-132 865.6,-132"/>
<text text-anchor="middle" x="846.1" y="-110.3" font-family="Times,serif" font-size="14.00">BAZ_S</text>
</g>
<!-- BAZ_I&#45;&gt;BAZ_S -->
<g id="edge8" class="edge">
<title>BAZ_I&#45;&gt;BAZ_S</title>
<path fill="none" stroke="#555555" d="M671.18,-113.14C705.91,-113.31 764.74,-113.6 804.25,-113.8"/>
<polygon fill="#555555" stroke="#555555" points="804.33,-117.3 814.34,-113.85 804.36,-110.3 804.33,-117.3"/>
<text text-anchor="middle" x="748.1" y="-127" font-family="Times,serif" font-size="10.00">on: C</text>
<text text-anchor="middle" x="748.1" y="-116" font-family="Times,serif" font-size="10.00">do: [handler_C]</text>
</g>
<!-- BAZ_S&#45;&gt;BAZ_F -->
<g id="edge9" class="edge">
<title>BAZ_S&#45;&gt;BAZ_F</title>
<path fill="none" stroke="#555555" d="M877.84,-113.37C910.9,-112.68 963.64,-111.6 1000.19,-110.84"/>
<polygon fill="#555555" stroke="#555555" points="1000.58,-114.34 1010.5,-110.63 1000.43,-107.34 1000.58,-114.34"/>
<text text-anchor="middle" x="944.1" y="-137" font-family="Times,serif" font-size="10.00">on: E</text>
<text text-anchor="middle" x="944.1" y="-126" font-family="Times,serif" font-size="10.00">do: [handler_E]</text>
<text text-anchor="middle" x="944.1" y="-115" font-family="Times,serif" font-size="10.00">on_entry: F</text>
</g>
</g>
</svg>
