<?xml version="1.0" encoding="UTF-8" standalone="no"?>
<!DOCTYPE svg PUBLIC "-//W3C//DTD SVG 1.1//EN" "http://www.w3.org/Graphics/SVG/1.1/DTD/svg11.dtd">
<svg width="100%" height="100%" viewBox="0 0 500 500" version="1.1" xmlns="http://www.w3.org/2000/svg" xmlns:xlink="http://www.w3.org/1999/xlink" xml:space="preserve" xmlns:serif="http://www.serif.com/" style="fill-rule:evenodd;clip-rule:evenodd;stroke-linejoin:round;stroke-miterlimit:2;">
    <g id="smal_icon" transform="matrix(2.33333,0,0,2.33333,-251.667,-298.333)">
        <path id="col_1" d="M165,210L165,260C165,273.798 153.798,285 140,285C126.202,285 115,273.798 115,260L115,210C115,223.798 126.202,235 140,235C153.798,235 165,223.798 165,210Z" style="fill:rgb(11,93,59);"/>
        <path id="col_2" d="M165,217.5L165,185C165,171.202 176.202,160 190,160C203.798,160 215,171.202 215,185L215,217.5C215,203.702 203.798,192.5 190,192.5C176.202,192.5 165,203.702 165,217.5ZM215,242.5L215,285C215,298.798 203.798,310 190,310C176.202,310 165,298.798 165,285L165,242.5C165,256.298 176.202,267.5 190,267.5C203.798,267.5 215,256.298 215,242.5Z" style="fill:rgb(11,93,59);"/>
        <path id="col_3" d="M265,210L265,260C265,273.798 253.798,285 240,285C226.202,285 215,273.798 215,260L215,210C215,223.798 226.202,235 240,235C253.798,235 265,223.798 265,210Z" style="fill:rgb(11,93,59);"/>
        <g id="col_4">
            <path d="M265,217.5L265,185C265,171.202 276.202,160 290,160C303.798,160 315,171.202 315,185L315,217.5C315,203.702 303.798,192.5 290,192.5C276.202,192.5 265,203.702 265,217.5ZM315,282.5L315,285C315,284.156 314.958,283.322 314.876,282.5L315,282.5ZM265,285L265,282.5L265.124,282.5C265.042,283.322 265,284.156 265,285Z" style="fill:rgb(11,93,59);"/>
            <g transform="matrix(2.10748,0,0,1.9419,-43.2724,-439.085)">
                <ellipse cx="158.138" cy="372.874" rx="11.862" ry="12.874" style="fill:rgb(39,174,96);"/>
            </g>
        </g>
    </g>
</svg>
